<svg width="723" height="127" viewBox="0 0 723 127" fill="none" xmlns="http://www.w3.org/2000/svg">
<path d="M119.463 34.0895C112.498 20.984 101.246 10.6739 87.5943 4.88633C73.9528 -0.803935 58.7561 -1.54883 44.6249 2.7801C30.4937 7.10903 18.3138 16.2404 10.1856 28.5996C2.2707 40.8433 -1.19644 55.4414 0.3664 69.9426C1.975 84.236 8.53272 97.5134 18.9003 107.468C20.2473 108.817 22.0791 109.047 22.9411 108.116C23.8032 107.185 23.453 105.418 22.2273 104.204L21.8367 103.867C13.1316 94.3466 7.94224 82.1296 7.13116 69.2466C6.32009 56.3636 9.93615 43.5906 17.3783 33.0509C24.6668 22.7775 35.2403 15.3051 47.3482 11.8708C59.4561 8.43662 72.3721 9.24657 83.9576 14.1666C95.4714 19.1301 104.95 27.8783 110.828 38.9661C116.705 50.0539 118.63 62.8178 116.284 75.1493C113.96 87.1541 107.764 98.0628 98.6489 106.199C89.5336 114.336 78.0027 119.251 65.8278 120.188L65.1408 95.3959C65.1229 94.7729 64.9713 94.161 64.6963 93.6019L65.7335 93.5209C66.5012 93.5209 67.0804 92.4553 67.0804 91.2009C67.0804 89.9464 66.4878 88.9213 65.7335 88.8808H65.518L59.0661 88.4222C57.1824 88.3258 55.3224 87.9579 53.5437 87.3296C50.1253 86.1105 47.138 83.916 44.9502 81.0169C42.8576 78.2054 41.6268 74.8451 41.4077 71.3454C41.4077 69.8212 41.4751 67.4202 41.5289 65.316V63.6433C55.7526 63.8861 69.9764 63.8322 84.2001 63.4815L84.4156 69.6593C84.5324 72.6143 83.9461 75.5548 82.705 78.2382C81.3544 81.0441 79.3317 83.472 76.817 85.3053C74.3024 87.1387 71.374 88.3207 68.2927 88.7459C67.6327 88.8673 67.0939 89.9329 67.0804 91.2009C67.067 92.4688 67.727 93.4805 68.589 93.5209H68.8315C72.9577 93.4597 77 92.3448 80.5757 90.2818C84.1514 88.2187 87.1421 85.2758 89.2646 81.7318C91.437 78.0423 92.6632 73.8716 92.834 69.5919L93.1976 58.8009C93.2303 57.6355 92.8009 56.5045 92.0033 55.6552C91.2058 54.8059 90.1048 54.3074 88.9413 54.2687H88.645C84.9005 54.1608 81.1425 54.1608 77.398 54.0933C79.3218 46.7976 78.7916 39.0703 75.8894 32.1066C75.1357 31.8754 74.3443 31.7929 73.5592 31.8638C72.7786 31.7937 71.9917 31.8761 71.2425 32.1066C68.3466 39.0228 67.7977 46.6996 69.68 53.9584C65.0735 53.9584 60.4669 53.891 55.8604 53.9584C57.7299 46.7176 57.1859 39.0634 54.3114 32.1606C53.5577 31.9294 52.7663 31.8469 51.9812 31.9178C51.2006 31.8476 50.4137 31.9301 49.6645 32.1606C46.7925 39.0644 46.2533 46.7192 48.129 53.9584C44.3845 53.9584 40.64 53.9584 36.8955 54.0663H36.6665C35.4363 54.0981 34.2689 54.6173 33.4205 55.51C32.572 56.4026 32.1118 57.5958 32.1408 58.8279L32.3697 65.3294C32.4506 67.5281 32.4371 69.4705 32.7065 72.2627C33.3775 77.418 35.6105 82.2434 39.1044 86.0886C42.5427 89.8302 47.0481 92.4205 52.0082 93.5075C54.3881 94.0153 56.8291 94.1743 59.2547 93.9796L60.7498 93.8716C60.5467 94.3512 60.4283 94.8623 60.3996 95.3824V95.895L59.6453 123.574C59.6254 123.982 59.6871 124.39 59.8266 124.775C59.9661 125.159 60.1807 125.511 60.4579 125.812C60.7351 126.112 61.0692 126.354 61.4408 126.523C61.8124 126.692 62.214 126.786 62.6221 126.798H62.7567C77.2746 127.056 91.4373 122.292 102.855 113.309C114.428 104.127 122.426 91.1765 125.459 76.7057C128.493 62.235 126.371 47.1573 119.463 34.0895Z" fill="black"/>
<path d="M168 93.8619C168.195 91.6533 168.863 89.4447 170.004 87.2361C171.144 85.0275 172.496 83.2205 174.06 81.815C181.031 86.1653 187.645 88.3404 193.9 88.3404C196.636 88.3404 198.64 87.7046 199.911 86.433C201.181 85.1614 201.816 83.5886 201.816 81.7146C201.816 78.569 199.764 76.0927 195.659 74.2857L184.126 69.2662C179.631 67.1914 176.177 64.6984 173.766 61.7871C171.356 58.8758 170.15 55.178 170.15 50.6939C170.15 47.6153 170.753 44.8044 171.958 42.2611C173.164 39.7179 174.858 37.5093 177.041 35.6353C179.223 33.7614 181.813 32.3057 184.81 31.2684C187.808 30.231 191.131 29.7123 194.779 29.7123C202.077 29.7123 209.44 31.6197 216.868 35.4346C216.542 40.5879 214.783 44.6036 211.59 47.4814C204.944 44.202 199.08 42.5623 193.998 42.5623C191.391 42.5623 189.437 43.1646 188.133 44.3693C186.83 45.574 186.179 46.946 186.179 48.4853C186.179 51.0955 188.101 53.2037 191.945 54.8099L203.673 59.9299C208.625 62.0715 212.323 64.8155 214.766 68.1619C217.21 71.5082 218.431 75.39 218.431 79.8072C218.431 82.9528 217.878 85.8306 216.77 88.4408C215.662 91.0509 214.017 93.3097 211.834 95.2171C209.652 97.1246 206.931 98.6137 203.673 99.6845C200.416 100.755 196.604 101.291 192.238 101.291C183.768 101.291 175.689 98.8145 168 93.8619ZM262.021 54.1072C266.713 58.926 269.058 65.8194 269.058 74.7877C269.058 78.8033 268.553 82.4508 267.543 85.7302C266.534 89.0097 265.068 91.8039 263.145 94.1129C261.223 96.4218 258.861 98.1954 256.06 99.4336C253.258 100.672 250.033 101.291 246.384 101.291C242.735 101.291 239.526 100.655 236.757 99.3834C233.988 98.1117 231.642 96.3214 229.72 94.0125C227.798 91.7035 226.348 88.9093 225.371 85.6299C224.393 82.3504 223.905 78.7364 223.905 74.7877C223.905 70.772 224.393 67.1413 225.371 63.8953C226.348 60.6493 227.781 57.8551 229.671 55.5127C231.561 53.1702 233.906 51.3632 236.708 50.0916C239.51 48.82 242.735 48.1842 246.384 48.1842C252.834 48.1842 258.047 50.1585 262.021 54.1072ZM246.482 59.9299C245.048 59.9299 243.892 60.2812 243.012 60.984C242.132 61.6867 241.432 62.6404 240.911 63.8451C240.389 65.0498 240.031 66.4385 239.836 68.0113C239.64 69.5841 239.542 71.274 239.542 73.081C239.542 75.892 239.624 78.3181 239.787 80.3593C239.95 82.4006 240.275 84.1073 240.764 85.4793C241.253 86.8513 241.937 87.8719 242.816 88.5412C243.696 89.2105 244.853 89.5451 246.286 89.5451C249.153 89.5451 251.042 88.2567 251.955 85.68C252.867 83.1034 253.323 79.4391 253.323 74.6873C253.323 69.8685 252.867 66.2043 251.955 63.6945C251.042 61.1847 249.218 59.9299 246.482 59.9299ZM296.913 88.3404H299.552C300.334 90.549 300.725 92.7576 300.725 94.9662C300.725 97.1748 300.627 98.6137 300.431 99.283C296.522 99.9522 293.036 100.287 289.974 100.287C285.543 100.287 282.399 99.1658 280.542 96.9238C278.685 94.6817 277.757 91.1513 277.757 86.3326V26.6002L278.343 25.8975H284.305C287.367 25.8975 289.518 26.6002 290.756 28.0057C291.994 29.4111 292.613 31.854 292.613 35.3342V83.622C292.613 86.7676 294.046 88.3404 296.913 88.3404ZM349.886 92.5568C349.56 93.9623 348.941 95.4681 348.029 97.0744C347.116 98.6806 346.172 99.8518 345.194 100.588C340.633 100.454 337.115 98.6806 334.639 95.2673C330.404 99.283 325.81 101.291 320.858 101.291C318.317 101.291 316.102 100.872 314.212 100.036C312.323 99.1993 310.726 98.0783 309.423 96.6728C308.12 95.2673 307.143 93.6444 306.491 91.8039C305.839 89.9634 305.514 88.0392 305.514 86.0314C305.514 83.1535 306.019 80.6271 307.029 78.4519C308.039 76.2768 309.423 74.4698 311.182 73.0308C312.942 71.5919 314.994 70.5043 317.34 69.7681C319.685 69.0319 322.194 68.6638 324.865 68.6638C326.364 68.6638 327.683 68.6806 328.824 68.714C329.964 68.7475 330.957 68.7977 331.804 68.8646V66.9572C331.804 62.7408 329.687 60.6326 325.452 60.6326C322.715 60.6326 317.926 61.7034 311.085 63.8451C309.13 61.5026 307.892 57.8551 307.371 52.9025C308.934 52.3002 310.677 51.7313 312.6 51.1959C314.522 50.6605 316.493 50.192 318.512 49.7904C320.532 49.3889 322.52 49.071 324.474 48.8367C326.429 48.6025 328.188 48.4853 329.752 48.4853C332.033 48.4853 334.232 48.82 336.349 49.4892C338.467 50.1585 340.324 51.1792 341.92 52.5512C343.516 53.9232 344.787 55.6967 345.732 57.8719C346.677 60.047 347.149 62.6404 347.149 65.6521V86.0314C347.149 89.1101 348.061 91.2852 349.886 92.5568ZM320.369 85.0275C320.369 88.1731 322.129 89.7459 325.647 89.7459C327.472 89.7459 329.524 88.7754 331.804 86.8345V78.8033C330.501 78.7364 329.41 78.6862 328.53 78.6527C327.651 78.6192 326.983 78.6025 326.527 78.6025C322.422 78.6025 320.369 80.7442 320.369 85.0275ZM355.652 56.9181C355.978 55.5796 356.597 54.0905 357.509 52.4508C358.421 50.8111 359.333 49.6231 360.245 48.8869C366.24 49.3554 370.41 52.4006 372.756 58.0224C375.232 51.999 379.304 48.9873 384.973 48.9873C386.667 48.9873 388.817 49.255 391.423 49.7904C391.423 51.8652 391.081 54.3247 390.397 57.1691C389.713 60.0135 388.784 62.4396 387.611 64.4474C386.504 64.0459 384.842 63.7112 382.627 63.4435C379.369 63.4435 376.698 65.1502 374.613 68.5635V99.7849C372.462 100.186 369.938 100.387 367.038 100.387C364.139 100.387 361.581 100.186 359.366 99.7849V67.3588C359.366 62.3392 358.128 58.859 355.652 56.9181Z" fill="black"/>
<path d="M404 99.7078L409.169 34.1741C412.029 33.6602 415.41 33.4032 419.311 33.4032C423.212 33.4032 426.626 33.6602 429.551 34.1741L435.305 57.7856C437.581 68.4508 438.784 74.2653 438.914 75.2291H439.596C439.856 73.6229 441.059 67.8084 443.205 57.7856L449.056 34.1741C451.917 33.6602 455.298 33.4032 459.199 33.4032C463.1 33.4032 466.513 33.6602 469.439 34.1741L474.607 99.7078C472.592 100.222 470.105 100.479 467.147 100.479C464.188 100.479 461.767 100.318 459.881 99.997L458.321 73.2052C457.866 62.54 457.606 55.1192 457.541 50.9431H456.955L447.301 90.1669C444.96 90.5524 442.278 90.7451 439.255 90.7451C436.232 90.7451 433.55 90.5524 431.209 90.1669L421.652 50.9431H420.969C420.969 56.6612 420.709 64.0819 420.189 73.2052L418.726 99.997C416.841 100.318 414.419 100.479 411.461 100.479C408.502 100.479 406.015 100.222 404 99.7078ZM523.662 80.7223H498.208C498.338 83.6135 499.086 85.8622 500.451 87.4685C501.816 89.0747 504.06 89.8778 507.18 89.8778C508.741 89.8778 510.545 89.6529 512.593 89.2032C514.641 88.7534 516.998 88.0146 519.663 86.9866C521.809 89.171 523.142 92.1265 523.662 95.8529C518.461 99.5151 512.089 101.346 504.547 101.346C500.451 101.346 497.022 100.704 494.258 99.4187C491.495 98.1337 489.252 96.3348 487.529 94.0218C485.806 91.7089 484.587 88.9783 483.872 85.8301C483.157 82.6819 482.799 79.2446 482.799 75.5182C482.799 71.9203 483.238 68.5954 484.116 65.5436C484.994 62.4918 486.326 59.8415 488.114 57.5928C489.902 55.3441 492.178 53.5773 494.941 52.2923C497.704 51.0073 500.939 50.3648 504.645 50.3648C507.765 50.3648 510.577 50.8788 513.081 51.9068C515.584 52.9348 517.713 54.3482 519.468 56.1472C521.224 57.9462 522.573 60.0985 523.516 62.6042C524.458 65.1099 524.93 67.8405 524.93 70.7959C524.93 74.7151 524.507 78.0239 523.662 80.7223ZM498.111 70.3141H510.984V69.254C510.984 66.8767 510.447 64.9172 509.375 63.3752C508.302 61.8332 506.693 61.0622 504.547 61.0622C502.467 61.0622 500.923 61.785 499.915 63.2306C498.907 64.6762 498.306 67.0374 498.111 70.3141ZM562.671 51.714C563.062 53.513 563.257 55.312 563.257 57.1109C563.257 58.9099 563.062 60.6767 562.671 62.4115L551.066 62.2187V84.3845C551.066 87.4042 552.496 88.9141 555.357 88.9141H560.818C561.664 91.227 562.086 93.3472 562.086 95.2747C562.086 97.2021 561.956 98.5835 561.696 99.4187C556.885 100.061 552.464 100.382 548.433 100.382C540.241 100.382 536.145 95.9172 536.145 86.9866V62.3151L528.538 62.4115C528.083 60.8052 527.855 59.0545 527.855 57.1591C527.855 55.2638 528.083 53.4488 528.538 51.714L536.145 51.9068V46.3172C536.145 43.0405 536.779 40.7115 538.047 39.3301C539.314 37.9488 541.444 37.2581 544.434 37.2581H550.383L551.066 37.9327V51.9068L562.671 51.714ZM567.84 58.7493C568.165 57.4643 568.783 56.0348 569.693 54.4607C570.603 52.8866 571.514 51.7462 572.424 51.0394C578.405 51.4892 582.566 54.4125 584.907 59.8094C587.378 54.027 591.441 51.1358 597.097 51.1358C598.788 51.1358 600.933 51.3928 603.534 51.9068C603.534 53.8985 603.193 56.2596 602.51 58.9902C601.827 61.7208 600.901 64.0498 599.731 65.9773C598.625 65.5918 596.967 65.2705 594.757 65.0135C591.506 65.0135 588.84 66.6519 586.76 69.9286V99.9006C584.614 100.286 582.095 100.479 579.202 100.479C576.309 100.479 573.757 100.286 571.546 99.9006V68.7721C571.546 63.9534 570.311 60.6125 567.84 58.7493ZM628.988 62.8933V99.9006C627.883 100.093 626.68 100.238 625.379 100.334C624.079 100.431 622.746 100.479 621.381 100.479C620.016 100.479 618.666 100.431 617.334 100.334C616.001 100.238 614.782 100.093 613.677 99.9006V68.0011C613.677 64.2747 612.149 62.4115 609.093 62.4115H607.63C607.24 61.1907 607.045 59.4881 607.045 57.3037C607.045 55.1835 607.24 53.3845 607.63 51.9068C609.32 51.7783 610.881 51.6659 612.311 51.5695C613.742 51.4731 615.042 51.4249 616.212 51.4249H618.358C621.673 51.4249 624.274 52.4529 626.16 54.5089C628.045 56.5648 628.988 59.3596 628.988 62.8933ZM611.921 32.4394C613.807 31.4115 616.245 30.8975 619.235 30.8975C622.291 30.8975 624.664 31.4115 626.355 32.4394C627.135 34.1741 627.525 36.0374 627.525 38.0291C627.525 40.0208 627.135 41.884 626.355 43.6187C624.469 44.5824 621.999 45.0643 618.943 45.0643C615.887 45.0643 613.547 44.5824 611.921 43.6187C611.141 41.884 610.751 40.0208 610.751 38.0291C610.751 36.0374 611.141 34.1741 611.921 32.4394ZM664.779 73.1089V71.856C664.779 68.2581 664.389 65.64 663.609 64.0016C662.829 62.3633 661.366 61.5441 659.22 61.5441C656.945 61.5441 655.352 62.6524 654.442 64.869C653.531 67.0855 653.076 70.7638 653.076 75.9037C653.076 78.4736 653.255 80.626 653.613 82.3607C653.97 84.0954 654.49 85.4928 655.173 86.5529C655.856 87.613 656.717 88.384 657.757 88.8659C658.798 89.3477 660.033 89.5887 661.463 89.5887C662.959 89.5887 664.617 89.2674 666.437 88.6249C668.257 87.9824 670.208 86.9545 672.288 85.541C672.874 85.8622 673.475 86.328 674.093 86.9384C674.71 87.5488 675.279 88.2394 675.799 89.0104C676.319 89.7814 676.774 90.6006 677.165 91.4679C677.555 92.3353 677.847 93.1545 678.042 93.9255C675.897 96.1742 673.101 97.9731 669.655 99.3223C666.209 100.672 662.699 101.346 659.123 101.346C652.166 101.346 646.835 99.0975 643.129 94.6001C639.423 90.1027 637.57 83.7099 637.57 75.4218C637.57 71.1814 638.171 67.4871 639.374 64.3389C640.577 61.1907 642.17 58.5887 644.153 56.5327C646.136 54.4767 648.411 52.9348 650.979 51.9068C653.548 50.8788 656.229 50.3648 659.025 50.3648C661.886 50.3648 664.503 50.7503 666.876 51.5213C669.249 52.2923 671.297 53.3845 673.02 54.798C674.743 56.2115 676.076 57.898 677.018 59.8576C677.961 61.8172 678.432 63.9856 678.432 66.3628C678.432 69.0612 677.636 70.9565 676.043 72.0488C674.45 73.141 672.483 73.6871 670.143 73.6871C668.192 73.6871 666.404 73.4944 664.779 73.1089ZM682.919 96.6239C682.984 94.9534 683.422 93.1223 684.235 91.1306C685.048 89.1389 686.007 87.5648 687.112 86.4084C692.313 89.1068 696.832 90.456 700.668 90.456C702.488 90.456 703.886 90.1508 704.861 89.5405C705.837 88.9301 706.324 88.1109 706.324 87.083C706.324 85.1555 704.829 83.7099 701.838 82.7462L696.474 80.7223C688.347 77.7669 684.284 72.9482 684.284 66.2664C684.284 61.3835 685.991 57.5125 689.404 54.6534C692.817 51.7944 697.417 50.3648 703.203 50.3648C706.064 50.3648 709.217 50.7664 712.663 51.5695C716.109 52.3726 718.937 53.3203 721.148 54.4125C721.278 56.2115 720.92 58.1871 720.075 60.3394C719.23 62.4918 718.19 64.0177 716.954 64.9172C711.493 62.4757 706.942 61.255 703.301 61.255C702.001 61.255 701.009 61.5441 700.327 62.1223C699.644 62.7006 699.302 63.4394 699.302 64.3389C699.302 65.8809 700.538 67.1016 703.008 68.0011L709.055 70.1213C717.702 73.141 722.026 78.313 722.026 85.6374C722.026 90.456 720.238 94.2788 716.662 97.1058C713.086 99.9327 707.982 101.346 701.351 101.346C694.719 101.346 688.575 99.7721 682.919 96.6239Z" fill="black"/>
</svg>
